<svg width="225" height="258" viewBox="0 0 225 258" fill="none" xmlns="http://www.w3.org/2000/svg">
<path d="M222.909 101.033C224.2 100.29 224.994 98.9156 224.994 97.4286V66.5794C224.994 65.0924 224.2 63.7183 222.909 62.9748L196.139 47.5488C194.851 46.8053 193.259 46.8053 191.97 47.5488L167.284 61.7715L143.442 48.0335V19.5882C143.442 18.1012 142.648 16.7271 141.357 15.9836L114.585 0.557616C113.296 -0.185872 111.704 -0.185872 110.415 0.557616L83.6435 15.9864C82.3522 16.7299 81.5576 18.1039 81.5576 19.5909V48.039L57.713 61.777L33.027 47.5516C31.7384 46.8081 30.1464 46.8081 28.8579 47.5516L2.08591 62.9776C0.794633 63.7211 0 65.0951 0 66.5821V97.4314C0 98.9183 0.794633 100.292 2.08591 101.036L26.772 115.261V142.737L2.08591 156.963C0.794633 157.706 0 159.08 0 160.567V191.419C0 192.906 0.794633 194.28 2.08591 195.024L28.8579 210.45C29.5035 210.822 30.2237 211.009 30.9438 211.009C31.6639 211.009 32.3841 210.822 33.0297 210.45L57.7158 196.224L81.5603 209.962V238.41C81.5603 239.897 82.3549 241.272 83.6462 242.015L110.415 257.441C111.061 257.813 111.781 258 112.501 258C113.222 258 113.942 257.813 114.587 257.441L141.359 242.015C142.651 241.272 143.445 239.897 143.445 238.41V209.957L167.287 196.219L191.973 210.444C192.619 210.816 193.339 211.003 194.059 211.003C194.779 211.003 195.499 210.816 196.145 210.444L222.914 195.018C224.205 194.275 225 192.901 225 191.414V160.562C225 159.075 224.205 157.701 222.914 156.957L198.228 142.732V115.256L222.909 101.033ZM194.053 171.183L175.622 160.562L194.053 149.941L212.485 160.562L194.053 171.183ZM139.268 202.748L116.668 189.726V162.25L141.354 148.024C142.645 147.281 143.44 145.907 143.44 144.42V115.975L167.281 102.237L189.882 115.259V142.735L165.198 156.96C163.907 157.703 163.112 159.078 163.112 160.565V189.013L139.268 202.748ZM112.499 218.174L94.0675 207.553L112.499 196.932L130.93 207.553L112.499 218.174ZM61.8849 189.01V160.562C61.8849 159.075 61.0902 157.701 59.7989 156.957L35.1129 142.732V115.256L57.713 102.234L81.5576 115.972V144.42C81.5576 145.907 82.3522 147.281 83.6435 148.024L108.33 162.25V189.726L85.7294 202.748L61.8849 189.01ZM30.9466 171.183L12.5155 160.562L30.9466 149.941L49.3777 160.562L30.9466 171.183ZM85.7294 55.2453L110.415 69.4707C111.061 69.8424 111.781 70.0269 112.501 70.0269C113.222 70.0269 113.942 69.8397 114.587 69.4707L139.273 55.2453L163.115 68.9833V95.0302L139.273 108.768L114.587 94.5455C113.299 93.802 111.707 93.802 110.418 94.5455L85.7321 108.768L61.8904 95.0302V68.9833L85.7294 55.2453ZM108.33 37.4154V58.6571L89.8984 48.0362V26.7945L108.33 37.4154ZM116.668 37.4154L135.099 26.7945V48.0362L116.668 58.6571V37.4154ZM189.884 84.4065V105.648L171.453 95.0274V73.7857L189.884 84.4065ZM89.8984 120.78L108.33 131.401V152.642L89.8984 142.021V120.78ZM112.499 124.191L94.0675 113.571L112.499 102.95L130.93 113.571L112.499 124.191ZM116.668 131.398L135.099 120.777V142.019L116.668 152.639V131.398ZM53.5467 73.7884V95.0302L35.1156 105.651V84.4093L53.5467 73.7884ZM198.222 105.648V84.4065L216.654 73.7857V95.0274L198.222 105.648ZM194.053 55.9585L212.485 66.5794L194.053 77.2002L175.622 66.5794L194.053 55.9585ZM112.499 8.96729L130.93 19.5882L112.499 30.209L94.0675 19.5882L112.499 8.96729ZM30.9466 55.9585L49.3777 66.5794L30.9466 77.2002L12.5155 66.5794L30.9466 55.9585ZM8.34365 73.7884L26.7747 84.4093V105.651L8.34365 95.0302V73.7884ZM8.34365 167.768L26.7747 178.389V199.631L8.34365 189.01V167.768ZM35.1156 199.631V178.389L53.5467 167.768V189.01L35.1156 199.631ZM89.8984 214.762L108.33 225.383V246.625L89.8984 236.004V214.762ZM135.102 236.001L116.67 246.622V225.38L135.102 214.759V236.001ZM171.45 167.768L189.882 178.389V199.631L171.45 189.01V167.768ZM198.222 199.631V178.389L216.654 167.768V189.01L198.222 199.631Z" fill="url(#paint0_linear_123_119)" fill-opacity="0.82"/>
<defs>
<linearGradient id="paint0_linear_123_119" x1="81" y1="113.5" x2="205" y2="157" gradientUnits="userSpaceOnUse">
<stop stop-color="#DCB05B"/>
<stop offset="0.47789" stop-color="#231FE6"/>
</linearGradient>
</defs>
</svg>
