<svg width="448" height="440" viewBox="0 0 448 440" fill="none" xmlns="http://www.w3.org/2000/svg">
<path fill-rule="evenodd" clip-rule="evenodd" d="M210.001 317C176.311 317 149.001 344.31 149.001 378V432C149.001 436.415 145.416 440 141.001 440C136.586 440 133.001 436.415 133.001 432V378C133.001 335.474 167.475 301 210.001 301H238.742C280.858 301 315.001 335.143 315.001 377.259V432C315.001 436.415 311.416 440 307.001 440C302.586 440 299.001 436.415 299.001 432V377.259C299.001 343.979 272.022 317 238.742 317H210.001ZM343.001 317C333.672 317 324.831 319.092 316.925 322.836C312.935 324.726 308.161 323.021 306.271 319.03C304.381 315.04 306.086 310.266 310.077 308.376C320.059 303.648 331.222 301 343.001 301H371.742C413.858 301 448.001 335.143 448.001 377.259V432C448.001 436.415 444.416 440 440.001 440C435.586 440 432.001 436.415 432.001 432V377.259C432.001 343.979 405.022 317 371.742 317H343.001ZM76.0012 316C42.8642 316 16.0012 342.863 16.0012 376V430C16.0012 434.415 12.4162 438 8.00121 438C3.58621 438 0.0012061 434.415 0.0012061 430V376C0.0012061 334.027 34.0272 300 76.0012 300H104.445C117.422 300 129.633 303.274 140.302 309.036C144.187 311.134 145.638 315.991 143.54 319.876C141.442 323.761 136.585 325.212 132.7 323.114C124.293 318.574 114.67 316 104.445 316H76.0012ZM196.011 120.661C184.481 112.01 177.001 98.146 177.001 82.5C177.001 56.239 198.072 35 224.001 35C249.93 35 271.001 56.239 271.001 82.5C271.001 98.596 263.086 112.805 250.988 121.393C251 122.816 251.001 124.373 251.001 126.072C251.001 128.347 250.831 130.46 250.505 132.414C249.331 139.456 246.17 144.625 241.418 148.147C237.061 151.374 231.139 153.258 223.501 153.258C214.445 153.258 207.793 150.619 203.265 146.165C198.695 141.668 196.001 135.066 196.001 126.072V125.059C196.001 123.469 196.001 122.006 196.011 120.661ZM234.867 128.723C231.379 129.558 227.74 130 224.001 130C219.887 130 215.895 129.465 212.09 128.461C212.311 131.136 212.979 133.276 214.487 134.759C216.462 136.703 219.551 137.258 223.501 137.258C227.034 137.258 229.877 136.784 231.893 135.29C233.513 134.09 234.323 132.183 234.723 129.783C234.78 129.438 234.828 129.085 234.867 128.723ZM224.001 114C241.15 114 255.001 99.869 255.001 82.5C255.001 65.131 241.15 51 224.001 51C206.852 51 193.001 65.131 193.001 82.5C193.001 99.869 206.852 114 224.001 114ZM64.0102 150.4C50.2412 145.178 39.0532 133.56 34.9182 118.127C28.1212 92.76 42.9772 66.792 68.0232 60.081C93.0682 53.371 118.918 68.432 125.714 93.798C129.794 109.021 126.075 124.461 117.035 135.825C117.353 136.986 117.689 138.235 118.048 139.578C118.637 141.774 119.019 143.86 119.21 145.831C119.899 152.938 118.184 158.749 114.505 163.38C111.132 167.625 105.899 170.978 98.5212 172.955C89.7742 175.299 82.6662 174.471 77.1392 171.34C71.5612 168.18 67.2502 162.5 64.9222 153.813L64.6602 152.834C64.4332 151.986 64.2162 151.175 64.0102 150.4ZM103.298 147.512C99.9982 149.355 96.4222 150.823 92.6102 151.844C88.9632 152.822 85.2982 153.337 81.6782 153.426C82.5052 155.222 83.5632 156.59 85.0262 157.419C87.4372 158.785 90.5652 158.522 94.3802 157.5C97.7932 156.585 100.417 155.391 101.977 153.427C103.207 151.878 103.508 149.874 103.298 147.512ZM88.4702 136.39C105.034 131.951 114.756 114.716 110.26 97.94C105.764 81.162 88.7282 71.098 72.1632 75.535C55.5992 79.974 45.8772 97.208 50.3732 113.985C54.8682 130.763 71.9052 140.827 88.4702 136.39ZM323.169 135.815C314.135 124.451 310.419 109.016 314.497 93.798C321.295 68.432 347.144 53.371 372.19 60.081C397.235 66.792 412.091 92.76 405.294 118.126C401.158 133.564 389.965 145.185 376.191 150.404C375.911 151.469 375.607 152.604 375.283 153.814C374.695 156.011 373.983 158.008 373.163 159.811C370.206 166.309 365.815 170.485 360.313 172.656C355.269 174.646 349.061 174.933 341.684 172.956C332.937 170.612 327.194 166.342 323.974 160.867C320.723 155.34 319.83 148.266 322.157 139.579L322.42 138.6C322.682 137.623 322.93 136.695 323.169 135.815ZM358.488 153.425C354.882 153.333 351.233 152.817 347.601 151.844C343.774 150.819 340.185 149.343 336.874 147.489C336.67 149.514 336.893 151.272 337.765 152.754C339.17 155.143 342.009 156.479 345.825 157.501C349.238 158.416 352.107 158.693 354.441 157.772C356.247 157.059 357.498 155.518 358.488 153.425ZM351.742 136.39C368.307 140.827 385.344 130.763 389.84 113.986C394.335 97.208 384.613 79.974 368.049 75.535C351.484 71.098 334.448 81.162 329.951 97.94C325.456 114.716 335.178 131.951 351.742 136.39ZM187.001 240.5C187.001 218.147 205.148 200 227.501 200C249.854 200 268.001 218.147 268.001 240.5V254.5C268.001 276.853 249.854 295 227.501 295C205.148 295 187.001 276.853 187.001 254.5V240.5ZM203.001 240.5V254.5C203.001 268.022 213.979 279 227.501 279C241.023 279 252.001 268.022 252.001 254.5V240.5C252.001 226.978 241.023 216 227.501 216C213.979 216 203.001 226.978 203.001 240.5ZM320.001 240.5C320.001 218.147 338.148 200 360.501 200C382.854 200 401.001 218.147 401.001 240.5V254.5C401.001 276.853 382.854 295 360.501 295C338.148 295 320.001 276.853 320.001 254.5V240.5ZM336.001 240.5V254.5C336.001 268.022 346.979 279 360.501 279C374.023 279 385.001 268.022 385.001 254.5V240.5C385.001 226.978 374.023 216 360.501 216C346.979 216 336.001 226.978 336.001 240.5ZM53.0012 240.5C53.0012 218.147 71.1482 200 93.5012 200C115.854 200 134.001 218.147 134.001 240.5V253.5C134.001 275.853 115.854 294 93.5012 294C71.1482 294 53.0012 275.853 53.0012 253.5V240.5ZM69.0012 240.5V253.5C69.0012 267.022 79.9792 278 93.5012 278C107.023 278 118.001 267.022 118.001 253.5V240.5C118.001 226.978 107.023 216 93.5012 216C79.9792 216 69.0012 226.978 69.0012 240.5ZM283.001 432C283.001 436.415 279.416 440 275.001 440C270.586 440 267.001 436.415 267.001 432V360C267.001 355.585 270.586 352 275.001 352C279.416 352 283.001 355.585 283.001 360V432ZM181.001 432C181.001 436.415 177.416 440 173.001 440C168.586 440 165.001 436.415 165.001 432V360C165.001 355.585 168.586 352 173.001 352C177.416 352 181.001 355.585 181.001 360V432ZM48.0012 432C48.0012 436.415 44.4162 440 40.0012 440C35.5862 440 32.0012 436.415 32.0012 432V360C32.0012 355.585 35.5862 352 40.0012 352C44.4162 352 48.0012 355.585 48.0012 360V432ZM416.001 432C416.001 436.415 412.416 440 408.001 440C403.586 440 400.001 436.415 400.001 432V360C400.001 355.585 403.586 352 408.001 352C412.416 352 416.001 355.585 416.001 360V432ZM216.001 8C216.001 3.585 219.586 0 224.001 0C228.416 0 232.001 3.585 232.001 8V18C232.001 22.415 228.416 26 224.001 26C219.586 26 216.001 22.415 216.001 18V8ZM53.3072 36.071C52.1642 31.806 54.6992 27.415 58.9642 26.273C63.2292 25.13 67.6192 27.665 68.7622 31.929L71.3502 41.589C72.4932 45.854 69.9582 50.244 65.6932 51.387C61.4282 52.529 57.0382 49.995 55.8952 45.73L53.3072 36.071ZM149.001 91C144.586 91 141.001 87.415 141.001 83C141.001 78.585 144.586 75 149.001 75H159.001C163.416 75 167.001 78.585 167.001 83C167.001 87.415 163.416 91 159.001 91H149.001ZM10.0712 133.582C5.80721 134.725 1.4162 132.19 0.274205 127.925C-0.868795 123.661 1.66621 119.27 5.93121 118.128L15.5902 115.54C19.8552 114.397 24.2452 116.932 25.3882 121.197C26.5302 125.461 23.9962 129.852 19.7312 130.994L10.0712 133.582ZM288.001 91C283.586 91 280.001 87.415 280.001 83C280.001 78.585 283.586 75 288.001 75H298.001C302.416 75 306.001 78.585 306.001 83C306.001 87.415 302.416 91 298.001 91H288.001ZM274.658 42.657C271.536 45.779 266.466 45.779 263.344 42.657C260.222 39.535 260.222 34.465 263.344 31.343L270.344 24.343C273.466 21.221 278.536 21.221 281.658 24.343C284.78 27.465 284.78 32.535 281.658 35.657L274.658 42.657ZM118.935 54.363C116.728 58.186 111.831 59.499 108.007 57.291C104.184 55.084 102.871 50.187 105.079 46.363L110.028 37.79C112.235 33.966 117.132 32.654 120.956 34.861C124.779 37.069 126.092 41.965 123.884 45.789L118.935 54.363ZM165.344 35.657C162.222 32.535 162.222 27.465 165.344 24.343C168.466 21.221 173.536 21.221 176.658 24.343L183.658 31.343C186.78 34.465 186.78 39.535 183.658 42.657C180.536 45.779 175.466 45.779 172.344 42.657L165.344 35.657ZM11.5352 75.897C7.71121 73.69 6.39821 68.793 8.60621 64.969C10.8132 61.146 15.7102 59.833 19.5342 62.041L28.1072 66.99C31.9312 69.197 33.2432 74.094 31.0362 77.918C28.8282 81.741 23.9322 83.054 20.1082 80.846L11.5352 75.897ZM371.451 31.93C372.593 27.665 376.984 25.13 381.248 26.273C385.513 27.415 388.048 31.806 386.905 36.07L384.317 45.73C383.175 49.995 378.784 52.529 374.52 51.387C370.255 50.244 367.72 45.854 368.863 41.589L371.451 31.93ZM434.28 118.128C438.545 119.27 441.08 123.661 439.937 127.925C438.795 132.19 434.404 134.725 430.14 133.582L420.481 130.994C416.216 129.852 413.681 125.461 414.824 121.197C415.966 116.932 420.357 114.397 424.621 115.54L434.28 118.128ZM335.133 46.363C337.341 50.187 336.029 55.083 332.205 57.291C328.381 59.499 323.485 58.187 321.277 54.363L316.327 45.79C314.119 41.966 315.431 37.069 319.255 34.862C323.079 32.654 327.975 33.966 330.183 37.79L335.133 46.363ZM420.678 62.041C424.502 59.833 429.399 61.145 431.606 64.969C433.814 68.793 432.502 73.69 428.678 75.897L420.105 80.846C416.281 83.054 411.384 81.742 409.177 77.918C406.969 74.094 408.281 69.197 412.105 66.99L420.678 62.041Z" fill="#B18F62"/>
</svg>
