<svg width="288" height="113" viewBox="0 0 288 113" fill="none" xmlns="http://www.w3.org/2000/svg">
<path d="M39.8096 11C37.2196 11 34.8796 12.5352 33.8496 14.9102L26.5342 31.7246C25.4592 34.1946 26.0395 37.1152 27.9795 38.9902L52.0098 62.2197C53.2748 63.4447 54.8993 64.0547 56.5293 64.0547C58.1543 64.0547 59.7788 63.4397 61.0488 62.2197L85.0791 38.9902C87.0191 37.1152 87.5994 34.1946 86.5244 31.7246L79.2139 14.9102C78.1789 12.5352 75.839 11 73.249 11H39.8096ZM39.8096 14H73.2539C74.6489 14 75.9089 14.8255 76.4639 16.1055L83.7744 32.9199C84.3494 34.2499 84.0391 35.8201 82.9941 36.8301L58.9639 60.0596C57.5989 61.3796 55.4646 61.3796 54.0996 60.0596L30.0645 36.8301C29.0195 35.8201 28.7091 34.2499 29.2891 32.9199L36.5996 16.1055C37.1546 14.8255 38.4146 14 39.8096 14ZM44.0293 21C43.1993 21 42.5293 21.67 42.5293 22.5C42.5293 23.33 43.1993 24 44.0293 24H55.0293V36.9854C47.0993 36.8454 42.2541 35.6049 40.8291 34.7549C41.8741 34.1449 44.9145 33.1697 50.6445 32.7197C51.4695 32.6547 52.0894 31.9354 52.0244 31.1104C51.9594 30.2854 51.2391 29.6655 50.4141 29.7305C41.8641 30.4005 37.5293 32.09 37.5293 34.75C37.5293 39.19 50.0193 39.8854 55.0293 39.9854V52.5C55.0293 53.33 55.6993 54 56.5293 54C57.3593 54 58.0293 53.33 58.0293 52.5V39.9854C63.0393 39.8854 75.5293 39.19 75.5293 34.75C75.5293 32.09 71.1945 30.4005 62.6445 29.7305C61.8145 29.6605 61.0942 30.2854 61.0342 31.1104C60.9692 31.9354 61.5891 32.6597 62.4141 32.7197C68.1441 33.1697 71.1845 34.1399 72.2295 34.7549C70.8045 35.6049 65.9643 36.8454 58.0293 36.9854V24H69.0293C69.8593 24 70.5293 23.33 70.5293 22.5C70.5293 21.67 69.8593 21 69.0293 21H44.0293Z" fill="#B18F62"/>
<rect x="0.5" y="0.5" width="287" height="112" rx="15.5" stroke="#B18F62"/>
<rect x="0.5" y="0.5" width="287" height="112" rx="15.5" stroke="#B18F62"/>
<path d="M176.951 37.749L144.476 19L112.003 37.748L112 37.75V75.251L144.476 94L144.477 93.999L176.953 75.251V37.75L176.951 37.749ZM174.131 73.621L144.477 90.74V78.759L125.199 67.631V45.371L125.201 45.369L134.922 50.981L144.477 45.465L154.032 50.982L154.034 50.983V62.018L144.477 67.534V78.759L163.755 67.631V45.371L163.753 45.37L163.752 45.369L144.477 34.24L125.201 45.369L114.825 39.378L144.476 22.258L174.128 39.378L174.131 39.38V73.621Z" fill="#B18F62"/>
<path d="M134.92 50.983V62.018L144.477 67.535V67.534V56.5L134.921 50.982L134.92 50.983Z" fill="#B18F62"/>
<path d="M208.464 74C207.064 74 205.799 74.8391 205.242 76.1373L201.289 85.3282C200.708 86.6783 201.021 88.2747 202.07 89.2996L215.057 101.997C215.741 102.667 216.619 103 217.5 103C218.378 103 219.256 102.664 219.943 101.997L232.93 89.2996C233.979 88.2747 234.292 86.6783 233.711 85.3282L229.76 76.1373C229.201 74.8391 227.936 74 226.536 74H208.464ZM208.464 75.6398H226.539C227.293 75.6398 227.974 76.091 228.274 76.7907L232.225 85.9816C232.536 86.7085 232.368 87.5668 231.803 88.1189L218.816 100.816C218.078 101.538 216.925 101.538 216.187 100.816L203.197 88.1189C202.632 87.5668 202.464 86.7085 202.778 85.9816L206.729 76.7907C207.029 76.091 207.71 75.6398 208.464 75.6398ZM210.744 79.4661C210.296 79.4661 209.933 79.8323 209.933 80.286C209.933 80.7396 210.296 81.1059 210.744 81.1059H216.689V88.2037C212.403 88.1272 209.785 87.4492 209.015 86.9846C209.579 86.6511 211.223 86.1181 214.319 85.8721C214.765 85.8366 215.1 85.4434 215.065 84.9924C215.03 84.5415 214.641 84.2027 214.195 84.2382C209.574 84.6044 207.231 85.5279 207.231 86.9819C207.231 89.4088 213.982 89.7889 216.689 89.8436V96.6841C216.689 97.1378 217.051 97.504 217.5 97.504C217.949 97.504 218.311 97.1378 218.311 96.6841V89.8436C221.018 89.7889 227.769 89.4088 227.769 86.9819C227.769 85.5279 225.426 84.6044 220.805 84.2382C220.356 84.1999 219.967 84.5415 219.935 84.9924C219.9 85.4434 220.235 85.8393 220.681 85.8721C223.777 86.1181 225.421 86.6484 225.985 86.9846C225.215 87.4492 222.599 88.1272 218.311 88.2037V81.1059H224.256C224.704 81.1059 225.067 80.7396 225.067 80.286C225.067 79.8323 224.704 79.4661 224.256 79.4661H210.744Z" fill="#B18F62"/>
</svg>
