<svg width="96" height="50" viewBox="0 0 96 50" fill="none" xmlns="http://www.w3.org/2000/svg">
<mask id="mask0_488_34" style="mask-type:luminance" maskUnits="userSpaceOnUse" x="28" y="10" width="33" height="31">
<path d="M28 18.6655L53.7676 10.5128L60.8096 32.7696L35.042 40.9224L28 18.6655Z" fill="#B18F62"/>
</mask>
<g mask="url(#mask0_488_34)">
<path d="M57.2169 29.2316C57.3966 29.7996 57.1 30.2035 56.9661 30.3508C56.8278 30.4995 56.4447 30.8306 55.8528 30.7174L44.4468 28.4638L42.2874 21.6389L50.6502 14.0272C50.9541 13.7546 51.3557 13.6514 51.7496 13.7557C52.1467 13.8543 52.4399 14.1335 52.5607 14.5151L57.2169 29.2316ZM41.8223 35.7719C41.9924 36.3096 41.6831 36.8892 41.1289 37.0646C40.579 37.2386 39.9926 36.9423 39.8225 36.4047L38.5096 32.2551L40.5094 31.6223L41.8223 35.7719ZM34.0641 30.0459L32.8678 26.2648C32.6771 25.6621 33.0262 25.0079 33.6426 24.8129L40.1743 22.7463L42.0648 28.7213L35.5331 30.7879C34.9167 30.9829 34.2548 30.6486 34.0641 30.0459ZM52.3655 11.524C51.1935 11.227 49.964 11.5349 49.0698 12.3473L40.3506 20.2816L32.9498 22.6232C31.0963 23.2096 30.0551 25.1609 30.6285 26.9734L31.8248 30.7544C32.3983 32.5668 34.3724 33.5641 36.2259 32.9776L36.7181 32.8219L38.031 36.9715C38.5071 38.4761 40.1458 39.3075 41.6845 38.8207C43.2276 38.3324 44.0898 36.7097 43.6138 35.2051L42.3009 31.0555L43.5868 30.6487L55.3656 32.9704C55.9705 33.0938 56.5776 33.0544 57.1407 32.8762C57.7261 32.691 58.2589 32.3554 58.695 31.8836C59.5491 30.9598 59.8338 29.7011 59.4606 28.5217L54.8044 13.8052C54.4464 12.6735 53.5331 11.8224 52.3655 11.524Z" fill="#B18F62"/>
</g>
<mask id="mask1_488_34" style="mask-type:luminance" maskUnits="userSpaceOnUse" x="58" y="17" width="8" height="5">
<path d="M58.7085 19.8539L64.8455 17.9122L65.4025 19.6726L59.2655 21.6143L58.7085 19.8539Z" fill="#B18F62"/>
</mask>
<g mask="url(#mask1_488_34)">
<path d="M63.9512 18.1999L59.6101 19.5734C59.1179 19.7292 58.8378 20.2471 58.9915 20.7327C59.1438 21.214 59.6721 21.4809 60.1643 21.3252L64.5055 19.9517C65.0021 19.7945 65.2764 19.2737 65.1241 18.7924C64.9704 18.3068 64.4479 18.0428 63.9512 18.1999Z" fill="#B18F62"/>
</g>
<path d="M65.5674 26.6229L61.522 25.7706C61.015 25.6639 60.5163 25.9839 60.3996 26.4787C60.2844 26.9779 60.6009 27.4692 61.1064 27.5716L65.1532 28.4283C65.3198 28.4614 65.4873 28.4513 65.6381 28.4036C65.9485 28.3054 66.1993 28.0496 66.2755 27.7202C66.3908 27.221 66.0743 26.7296 65.5674 26.6229Z" fill="#B18F62"/>
<path d="M57.6154 15.4583C57.7219 15.4246 57.8214 15.3693 57.9111 15.298L61.189 12.7535C61.5953 12.4342 61.6712 11.8568 61.3498 11.4577C61.0342 11.0614 60.4427 10.9958 60.0364 11.3151L56.7584 13.8596C56.3521 14.179 56.2762 14.7563 56.5976 15.1555C56.8462 15.4632 57.2518 15.5734 57.6154 15.4583Z" fill="#B18F62"/>
<path d="M24.1855 6.67188C20.8957 6.71968 18.2305 9.4379 18.2305 12.7422V36.8516C18.2305 40.1559 20.8981 42.8643 24.1855 42.9121C24.317 42.9142 24.4476 42.8903 24.5698 42.8418C24.6921 42.7934 24.8036 42.7213 24.8979 42.6296C24.9923 42.538 25.0676 42.4287 25.1196 42.3079C25.1717 42.1871 25.1994 42.0573 25.2012 41.9258C25.203 41.7945 25.1789 41.6641 25.1303 41.542C25.0817 41.42 25.0095 41.3088 24.9179 41.2146C24.8263 41.1205 24.7171 41.0453 24.5964 40.9934C24.4758 40.9415 24.3461 40.9139 24.2148 40.9121C22.0023 40.8799 20.2305 39.0873 20.2305 36.8516V12.7422C20.2305 10.5065 22.0047 8.70403 24.2148 8.67188C24.3461 8.6701 24.4758 8.64248 24.5964 8.59057C24.7171 8.53867 24.8263 8.4635 24.9179 8.36937C25.0095 8.27524 25.0817 8.16398 25.1303 8.04196C25.1789 7.91994 25.203 7.78954 25.2012 7.65821C25.1994 7.52671 25.1717 7.39685 25.1196 7.27608C25.0676 7.1553 24.9923 7.04597 24.8979 6.95435C24.8036 6.86273 24.6921 6.79062 24.5698 6.74215C24.4476 6.69368 24.317 6.6698 24.1855 6.67188Z" fill="#B18F62"/>
<path d="M71.8185 6.67188C71.6872 6.66955 71.5567 6.69311 71.4345 6.74123C71.3123 6.78934 71.2007 6.86106 71.1062 6.95229C71.0117 7.04352 70.9361 7.15248 70.8837 7.27293C70.8314 7.39339 70.8032 7.52298 70.8009 7.65431C70.7986 7.78564 70.8222 7.91613 70.8703 8.03835C70.9184 8.16056 70.9901 8.2721 71.0814 8.3666C71.1726 8.46109 71.2815 8.53669 71.402 8.58907C71.5224 8.64145 71.652 8.66959 71.7833 8.67188C74.0073 8.71218 75.7716 10.516 75.7716 12.7422V36.8516C75.7716 39.0778 74.0098 40.8718 71.7833 40.9121C71.652 40.9144 71.5224 40.9426 71.402 40.9949C71.2815 41.0473 71.1726 41.1229 71.0813 41.2174C70.9901 41.3119 70.9184 41.4234 70.8703 41.5457C70.8222 41.6679 70.7986 41.7984 70.8009 41.9297C70.8032 42.061 70.8314 42.1906 70.8837 42.3111C70.9361 42.4315 71.0117 42.5405 71.1062 42.6317C71.2007 42.7229 71.3123 42.7947 71.4345 42.8428C71.5567 42.8909 71.6872 42.9145 71.8185 42.9121C75.112 42.8524 77.7716 40.1454 77.7716 36.8516V12.7422C77.7716 9.44838 75.1144 6.73159 71.8185 6.67188Z" fill="#B18F62"/>
<path d="M28.8516 4.31804e-07C25.7441 4.31804e-07 23.2031 2.54099 23.2031 5.64844V43.9394C23.2031 47.0469 25.7441 49.5879 28.8516 49.5879H67.1504C70.2578 49.5879 72.7988 47.0469 72.7988 43.9394V5.64844C72.7988 2.54073 70.2575 -0.00120957 67.1504 4.31804e-07H28.8516ZM28.8516 2H67.1504C69.1753 1.99921 70.7969 3.62215 70.7969 5.64844V43.9394C70.7969 45.966 69.175 47.5879 67.1484 47.5879H28.8496C26.823 47.5879 25.2011 45.966 25.2011 43.9394V5.64844C25.2011 3.62189 26.823 2 28.8496 2H28.8516Z" fill="#B18F62"/>
<path d="M76.877 23.8008C76.6117 23.8008 76.3574 23.9061 76.1698 24.0937C75.9823 24.2812 75.877 24.5356 75.877 24.8008C75.877 25.066 75.9823 25.3203 76.1698 25.5079C76.3574 25.6954 76.6117 25.8008 76.877 25.8008H83.9608C84.2261 25.8008 84.4804 25.6954 84.668 25.5079C84.8555 25.3203 84.9608 25.066 84.9608 24.8008C84.9608 24.5356 84.8555 24.2812 84.668 24.0937C84.4804 23.9061 84.2261 23.8008 83.9608 23.8008H76.877Z" fill="#B18F62"/>
<path d="M87.1055 20.6445C84.8319 20.6445 82.9648 22.5188 82.9648 24.8047C82.9648 27.0782 84.8319 28.9453 87.1055 28.9453C89.3914 28.9453 91.2656 27.0782 91.2656 24.8047C91.2656 22.5188 89.3914 20.6445 87.1055 20.6445ZM87.1055 22.6445C88.3116 22.6445 89.2656 23.5986 89.2656 24.8047C89.2656 25.9872 88.3116 26.9453 87.1055 26.9453C85.923 26.9453 84.9648 25.9872 84.9648 24.8047C84.9648 23.5986 85.923 22.6445 87.1055 22.6445Z" fill="#B18F62"/>
<path d="M91.8398 6.20703C89.5663 6.20703 87.6973 8.08129 87.6973 10.3672C87.6973 12.6407 89.5663 14.5098 91.8398 14.5098C94.1257 14.5098 96 12.6407 96 10.3672C96 8.08129 94.1257 6.20703 91.8398 6.20703ZM91.8398 8.20703C93.0459 8.20703 94 9.16109 94 10.3672C94 11.5497 93.0459 12.5098 91.8398 12.5098C90.6574 12.5098 89.6973 11.5497 89.6973 10.3672C89.6973 9.16109 90.6574 8.20703 91.8398 8.20703Z" fill="#B18F62"/>
<path d="M91.8398 35.0801C89.5663 35.0801 87.6973 36.9491 87.6973 39.2226C87.6973 41.5085 89.5663 43.3828 91.8398 43.3828C94.1257 43.3828 96 41.5085 96 39.2226C96 36.9491 94.1257 35.0801 91.8398 35.0801ZM91.8398 37.0801C93.0459 37.0801 94 38.0402 94 39.2226C94 40.4287 93.0459 41.3828 91.8398 41.3828C90.6574 41.3828 89.6973 40.4287 89.6973 39.2226C89.6973 38.0402 90.6574 37.0801 91.8398 37.0801Z" fill="#B18F62"/>
<path d="M76.865 32.3184C76.6017 32.2931 76.3391 32.3731 76.1346 32.541C75.9299 32.7092 75.8004 32.9518 75.7744 33.2155C75.7484 33.4791 75.828 33.7423 75.9959 33.9473L80.867 39.8711C80.9607 39.9851 81.0785 40.077 81.2119 40.1402C81.3452 40.2033 81.4909 40.2362 81.6385 40.2363H88.6971C88.9623 40.2363 89.2167 40.131 89.4042 39.9435C89.5918 39.7559 89.6971 39.5016 89.6971 39.2363C89.6971 38.9711 89.5918 38.7168 89.4042 38.5292C89.2167 38.3417 88.9623 38.2363 88.6971 38.2363H82.1111L77.5408 32.6777C77.4573 32.5764 77.3546 32.4925 77.2387 32.4308C77.1227 32.3692 76.9957 32.331 76.865 32.3184Z" fill="#B18F62"/>
<path d="M81.6387 9.36328C81.4911 9.36347 81.3454 9.39631 81.212 9.45945C81.0786 9.5226 80.9609 9.61448 80.8672 9.72851L75.998 15.6387C75.9143 15.74 75.8514 15.8568 75.8129 15.9824C75.7744 16.108 75.7611 16.2399 75.7736 16.3707C75.7861 16.5015 75.8243 16.6285 75.8859 16.7445C75.9475 16.8605 76.0314 16.9633 76.1328 17.0469C76.2342 17.1304 76.3511 17.1931 76.4767 17.2315C76.6024 17.2698 76.7344 17.283 76.8652 17.2703C76.996 17.2576 77.123 17.2193 77.2389 17.1575C77.3549 17.0957 77.4575 17.0116 77.541 16.9102L82.1113 11.3633H88.6973C88.9625 11.3633 89.2168 11.2579 89.4044 11.0704C89.5919 10.8829 89.6973 10.6285 89.6973 10.3633C89.6973 10.0981 89.5919 9.84371 89.4044 9.65618C89.2168 9.46864 88.9625 9.36328 88.6973 9.36328H81.6387Z" fill="#B18F62"/>
<path d="M12.0391 23.7891C11.7738 23.7891 11.5195 23.8944 11.332 24.082C11.1444 24.2695 11.0391 24.5238 11.0391 24.7891C11.0391 25.0543 11.1444 25.3086 11.332 25.4962C11.5195 25.6837 11.7738 25.7891 12.0391 25.7891H19.123C19.3882 25.7891 19.6425 25.6837 19.8301 25.4962C20.0176 25.3086 20.123 25.0543 20.123 24.7891C20.123 24.5238 20.0176 24.2695 19.8301 24.082C19.6425 23.8944 19.3882 23.7891 19.123 23.7891H12.0391Z" fill="#B18F62"/>
<path d="M8.89448 20.6445C6.60858 20.6445 4.73438 22.5116 4.73438 24.7851C4.73438 27.071 6.60858 28.9453 8.89448 28.9453C11.1681 28.9453 13.0352 27.071 13.0352 24.7851C13.0352 22.5116 11.1681 20.6445 8.89448 20.6445ZM8.89448 22.6445C10.077 22.6445 11.0352 23.6027 11.0352 24.7851C11.0352 25.9912 10.077 26.9453 8.89448 26.9453C7.68838 26.9453 6.73438 25.9912 6.73438 24.7851C6.73438 23.6027 7.68838 22.6445 8.89448 22.6445Z" fill="#B18F62"/>
<path d="M4.1602 35.0801C1.8743 35.0801 0 36.9491 0 39.2226C0 41.5085 1.8743 43.3828 4.1602 43.3828C6.4337 43.3828 8.3027 41.5085 8.3027 39.2226C8.3027 36.9491 6.4337 35.0801 4.1602 35.0801ZM4.1602 37.0801C5.3426 37.0801 6.3027 38.0402 6.3027 39.2226C6.3027 40.4287 5.3426 41.3828 4.1602 41.3828C2.9541 41.3828 2 40.4287 2 39.2226C2 38.0402 2.9541 37.0801 4.1602 37.0801Z" fill="#B18F62"/>
<path d="M4.1602 6.20703C1.8743 6.20703 0 8.08129 0 10.3672C0 12.6407 1.8743 14.5098 4.1602 14.5098C6.4337 14.5098 8.3027 12.6407 8.3027 10.3672C8.3027 8.08129 6.4337 6.20703 4.1602 6.20703ZM4.1602 8.20703C5.3426 8.20703 6.3027 9.16109 6.3027 10.3672C6.3027 11.5497 5.3426 12.5098 4.1602 12.5098C2.9541 12.5098 2 11.5497 2 10.3672C2 9.16109 2.9541 8.20703 4.1602 8.20703Z" fill="#B18F62"/>
<path d="M7.30273 9.35352C7.03752 9.35352 6.78316 9.45887 6.59563 9.64641C6.40809 9.83394 6.30273 10.0883 6.30273 10.3535C6.30273 10.6187 6.40809 10.8731 6.59563 11.0606C6.78316 11.2482 7.03752 11.3535 7.30273 11.3535H13.8887L18.459 16.9121C18.6275 17.1165 18.8702 17.2457 19.1339 17.2713C19.3975 17.2969 19.6605 17.2169 19.8652 17.0488C20.0699 16.8806 20.1995 16.6381 20.2255 16.3744C20.2515 16.1107 20.1718 15.8475 20.0039 15.6426L15.1328 9.71876C15.0392 9.60472 14.9214 9.51284 14.788 9.44969C14.6546 9.38655 14.5089 9.3537 14.3613 9.35352H7.30273Z" fill="#B18F62"/>
<path d="M19.8672 32.543C19.7658 32.4594 19.6489 32.3967 19.5233 32.3583C19.3976 32.32 19.2656 32.3068 19.1348 32.3195C19.004 32.3322 18.877 32.3705 18.7611 32.4323C18.6451 32.4941 18.5425 32.5782 18.459 32.6797L13.8887 38.2266H7.30273C7.03752 38.2266 6.78316 38.3319 6.59563 38.5195C6.40809 38.707 6.30273 38.9613 6.30273 39.2266C6.30273 39.4918 6.40809 39.7461 6.59563 39.9337C6.78316 40.1212 7.03752 40.2266 7.30273 40.2266H14.3613C14.5089 40.2264 14.6546 40.1935 14.788 40.1304C14.9214 40.0672 15.0392 39.9754 15.1328 39.8613L20.002 33.9512C20.0857 33.8499 20.1486 33.7331 20.1871 33.6075C20.2256 33.4819 20.2389 33.3499 20.2264 33.2191C20.2139 33.0884 20.1757 32.9613 20.1141 32.8453C20.0525 32.7293 19.9686 32.6266 19.8672 32.543Z" fill="#B18F62"/>
</svg>
