<svg width="288" height="115" viewBox="0 0 288 115" fill="none" xmlns="http://www.w3.org/2000/svg">
<rect x="0.5" y="0.5" width="287" height="112" rx="15.5" stroke="#B18F62"/>
<path d="M192 43H188V45H192V43Z" fill="#B18F62"/>
<path d="M202 43H194V45H202V43Z" fill="#B18F62"/>
<path d="M202 47H188V49H202V47Z" fill="#B18F62"/>
<path d="M246 50C246 45.264 244.01 40.767 240.55 37.554L241.115 31.895L230 32.905V26C230 24.346 228.654 23 227 23H189C187.346 23 186 24.346 186 26V39C184.897 39 184 39.897 184 41V51C184 52.103 184.897 53 186 53V80C186 81.654 187.346 83 189 83H226C226 84.103 226.897 85 228 85H230C231.103 85 232 84.103 232 83V66.719C239.946 65.296 246 58.349 246 50ZM234 59.786C233.366 60.111 232.698 60.376 232 60.574V50.414L234 48.414V59.786ZM230 49.586V60.949C229.67 60.979 229.338 61 229 61C228.662 61 228.33 60.979 228 60.949V48.586L222 54.586V58.479C220.887 57.558 219.961 56.421 219.279 55.135L233.971 40.443L239.077 45.6C239.68 46.979 240 48.47 240 50C240 53.408 238.441 56.459 236 58.479V43.586L230 49.586ZM226 60.574C225.302 60.376 224.634 60.111 224 59.786V55.414L226 53.414V60.574ZM214 50C214 41.863 220.516 35.233 228.603 35.02L230.682 37.119C230.127 37.048 229.568 37 229 37C221.832 37 216 42.832 216 50C216 51.657 216.323 53.236 216.891 54.695L215.367 56.219C214.498 54.322 214 52.22 214 50ZM218 50C218 43.935 222.935 39 229 39C230.072 39 231.116 39.163 232.124 39.462L218.459 53.127C218.164 52.135 218 51.087 218 50ZM238.885 34.105L238.116 41.787L231.203 34.804L238.885 34.105ZM189 25H227C227.552 25 228 25.449 228 26V33.051C225.489 33.198 223.12 33.876 221.017 35H188V26C188 25.449 188.448 25 189 25ZM186 41H204L204.001 51H198V54.667C198 54.955 197.572 55.097 197.399 54.867L194.5 51H186V41ZM189 81C188.448 81 188 80.552 188 80V53H193.5L195.8 56.066C196.238 56.651 196.936 57 197.667 57C198.953 57 200 55.953 200 54.667V53H204C205.103 53 206 52.103 206 51V41C206 39.897 205.103 39 204 39H188V37H218.068C214.363 40.121 212 44.788 212 50C212 52.779 212.683 55.397 213.871 57.715L207 64.586L200.036 57.622L189.331 67.257L190.669 68.743L199.964 60.378L207 67.414L214.911 59.503C217.434 63.232 221.402 65.895 226 66.718V81H189ZM230 83H228V66.949C228.333 66.969 228.662 67 229 67C229.338 67 229.667 66.969 230 66.949V83ZM229 65C223.692 65 219.031 62.221 216.364 58.05L217.818 56.596C220.083 60.422 224.241 63 229 63C236.168 63 242 57.168 242 50C242 47.535 241.304 45.154 239.998 43.081L240.291 40.151C242.659 42.867 244 46.352 244 50C244 58.271 237.271 65 229 65Z" fill="#B18F62"/>
<path d="M193 33C194.654 33 196 31.654 196 30C196 28.346 194.654 27 193 27C191.346 27 190 28.346 190 30C190 31.654 191.346 33 193 33ZM193 29C193.552 29 194 29.449 194 30C194 30.551 193.552 31 193 31C192.448 31 192 30.551 192 30C192 29.449 192.448 29 193 29Z" fill="#B18F62"/>
<path d="M201 33C202.654 33 204 31.654 204 30C204 28.346 202.654 27 201 27C199.346 27 198 28.346 198 30C198 31.654 199.346 33 201 33ZM201 29C201.552 29 202 29.449 202 30C202 30.551 201.552 31 201 31C200.448 31 200 30.551 200 30C200 29.449 200.448 29 201 29Z" fill="#B18F62"/>
<path d="M209 33C210.654 33 212 31.654 212 30C212 28.346 210.654 27 209 27C207.346 27 206 28.346 206 30C206 31.654 207.346 33 209 33ZM209 29C209.552 29 210 29.449 210 30C210 30.551 209.552 31 209 31C208.448 31 208 30.551 208 30C208 29.449 208.448 29 209 29Z" fill="#B18F62"/>
<path d="M222 75V67H220V75H218V65H216V75H214V69H208V75H206V68.586L200 62.586V75H198V65.586L192 71.586V75H190V77H224V75H222ZM210 71H212V75H210V71ZM202 67.414L204 69.414V75H202V67.414ZM194 72.414L196 70.414V75H194V72.414Z" fill="#B18F62"/>
<path d="M59.6762 85C58.9867 85 58.3638 85.5182 58.0896 86.32L56.1422 91.9961C55.856 92.8299 56.0105 93.8159 56.527 94.4488L62.9239 102.291C63.2607 102.704 63.6931 102.91 64.127 102.91C64.5596 102.91 64.9921 102.702 65.3302 102.291L71.7271 94.4488C72.2436 93.8159 72.398 92.8299 72.1119 91.9961L70.1658 86.32C69.8903 85.5182 69.2674 85 68.5779 85H59.6762ZM59.6762 86.0127H68.5792C68.9506 86.0127 69.286 86.2914 69.4337 86.7235L71.3798 92.3996C71.5329 92.8486 71.4503 93.3787 71.1721 93.7196L64.7751 101.561C64.4118 102.007 63.8436 102.007 63.4802 101.561L57.082 93.7196C56.8038 93.3787 56.7212 92.8486 56.8756 92.3996L58.8217 86.7235C58.9694 86.2914 59.3048 86.0127 59.6762 86.0127ZM60.7995 88.3758C60.5785 88.3758 60.4002 88.6019 60.4002 88.8821C60.4002 89.1623 60.5785 89.3885 60.7995 89.3885H63.7277V93.772C61.6167 93.7248 60.3269 93.306 59.9476 93.0191C60.2258 92.8132 61.0351 92.484 62.5605 92.3321C62.7801 92.3101 62.9451 92.0673 62.9278 91.7888C62.9105 91.5103 62.7188 91.301 62.4991 91.323C60.2231 91.5491 59.0692 92.1195 59.0692 93.0174C59.0692 94.5163 62.394 94.751 63.7277 94.7848V99.0094C63.7277 99.2896 63.9061 99.5158 64.127 99.5158C64.348 99.5158 64.5263 99.2896 64.5263 99.0094V94.7848C65.86 94.751 69.1849 94.5163 69.1849 93.0174C69.1849 92.1195 68.031 91.5491 65.7549 91.323C65.534 91.2993 65.3422 91.5103 65.3263 91.7888C65.309 92.0673 65.474 92.3118 65.6936 92.3321C67.2189 92.484 68.0283 92.8115 68.3065 93.0191C67.9272 93.306 66.6387 93.7248 64.5263 93.772V89.3885H67.4546C67.6755 89.3885 67.8539 89.1623 67.8539 88.8821C67.8539 88.6019 67.6755 88.3758 67.4546 88.3758H60.7995Z" fill="#B18F62"/>
<path d="M80.6762 8C79.9867 8 79.3638 8.51823 79.0896 9.31998L77.1422 14.9961C76.856 15.8299 77.0105 16.8159 77.527 17.4488L83.9239 25.2906C84.2607 25.7041 84.6931 25.91 85.127 25.91C85.5596 25.91 85.9921 25.7024 86.3302 25.2906L92.7271 17.4488C93.2436 16.8159 93.398 15.8299 93.1119 14.9961L91.1658 9.31998C90.8903 8.51823 90.2674 8 89.5779 8H80.6762ZM80.6762 9.01273H89.5792C89.9506 9.01273 90.286 9.29139 90.4337 9.72348L92.3798 15.3996C92.5329 15.8486 92.4503 16.3787 92.1721 16.7196L85.7751 24.5613C85.4118 25.0069 84.8436 25.0069 84.4802 24.5613L78.082 16.7196C77.8038 16.3787 77.7212 15.8486 77.8756 15.3996L79.8217 9.72348C79.9694 9.29139 80.3048 9.01273 80.6762 9.01273ZM81.7995 11.3758C81.5785 11.3758 81.4002 11.6019 81.4002 11.8821C81.4002 12.1623 81.5785 12.3885 81.7995 12.3885H84.7277V16.772C82.6167 16.7248 81.3269 16.306 80.9476 16.0191C81.2258 15.8132 82.0351 15.484 83.5605 15.3321C83.7801 15.3101 83.9451 15.0673 83.9278 14.7888C83.9105 14.5103 83.7188 14.301 83.4991 14.323C81.2231 14.5491 80.0692 15.1195 80.0692 16.0174C80.0692 17.5163 83.394 17.751 84.7277 17.7848V22.0094C84.7277 22.2896 84.9061 22.5158 85.127 22.5158C85.348 22.5158 85.5263 22.2896 85.5263 22.0094V17.7848C86.86 17.751 90.1849 17.5163 90.1849 16.0174C90.1849 15.1195 89.031 14.5491 86.7549 14.323C86.534 14.2993 86.3422 14.5103 86.3263 14.7888C86.309 15.0673 86.474 15.3118 86.6936 15.3321C88.2189 15.484 89.0283 15.8115 89.3065 16.0191C88.9272 16.306 87.6387 16.7248 85.5263 16.772V12.3885H88.4546C88.6755 12.3885 88.8539 12.1623 88.8539 11.8821C88.8539 11.6019 88.6755 11.3758 88.4546 11.3758H81.7995Z" fill="#B18F62"/>
<path d="M241.676 8C240.987 8 240.364 8.51823 240.09 9.31998L238.142 14.9961C237.856 15.8299 238.011 16.8159 238.527 17.4488L244.924 25.2906C245.261 25.7041 245.693 25.91 246.127 25.91C246.56 25.91 246.992 25.7024 247.33 25.2906L253.727 17.4488C254.244 16.8159 254.398 15.8299 254.112 14.9961L252.166 9.31998C251.89 8.51823 251.267 8 250.578 8H241.676ZM241.676 9.01273H250.579C250.951 9.01273 251.286 9.29139 251.434 9.72348L253.38 15.3996C253.533 15.8486 253.45 16.3787 253.172 16.7196L246.775 24.5613C246.412 25.0069 245.844 25.0069 245.48 24.5613L239.082 16.7196C238.804 16.3787 238.721 15.8486 238.876 15.3996L240.822 9.72348C240.969 9.29139 241.305 9.01273 241.676 9.01273ZM242.799 11.3758C242.579 11.3758 242.4 11.6019 242.4 11.8821C242.4 12.1623 242.579 12.3885 242.799 12.3885H245.728V16.772C243.617 16.7248 242.327 16.306 241.948 16.0191C242.226 15.8132 243.035 15.484 244.56 15.3321C244.78 15.3101 244.945 15.0673 244.928 14.7888C244.911 14.5103 244.719 14.301 244.499 14.323C242.223 14.5491 241.069 15.1195 241.069 16.0174C241.069 17.5163 244.394 17.751 245.728 17.7848V22.0094C245.728 22.2896 245.906 22.5158 246.127 22.5158C246.348 22.5158 246.526 22.2896 246.526 22.0094V17.7848C247.86 17.751 251.185 17.5163 251.185 16.0174C251.185 15.1195 250.031 14.5491 247.755 14.323C247.534 14.2993 247.342 14.5103 247.326 14.7888C247.309 15.0673 247.474 15.3118 247.694 15.3321C249.219 15.484 250.028 15.8115 250.307 16.0191C249.927 16.306 248.639 16.7248 246.526 16.772V12.3885H249.455C249.676 12.3885 249.854 12.1623 249.854 11.8821C249.854 11.6019 249.676 11.3758 249.455 11.3758H242.799Z" fill="#B18F62"/>
<path d="M233.676 88C232.987 88 232.364 88.5182 232.09 89.32L230.142 94.9961C229.856 95.8299 230.011 96.8159 230.527 97.4488L236.924 105.291C237.261 105.704 237.693 105.91 238.127 105.91C238.56 105.91 238.992 105.702 239.33 105.291L245.727 97.4488C246.244 96.8159 246.398 95.8299 246.112 94.9961L244.166 89.32C243.89 88.5182 243.267 88 242.578 88H233.676ZM233.676 89.0127H242.579C242.951 89.0127 243.286 89.2914 243.434 89.7235L245.38 95.3996C245.533 95.8486 245.45 96.3787 245.172 96.7196L238.775 104.561C238.412 105.007 237.844 105.007 237.48 104.561L231.082 96.7196C230.804 96.3787 230.721 95.8486 230.876 95.3996L232.822 89.7235C232.969 89.2914 233.305 89.0127 233.676 89.0127ZM234.799 91.3758C234.579 91.3758 234.4 91.6019 234.4 91.8821C234.4 92.1623 234.579 92.3885 234.799 92.3885H237.728V96.772C235.617 96.7248 234.327 96.306 233.948 96.0191C234.226 95.8132 235.035 95.484 236.56 95.3321C236.78 95.3101 236.945 95.0673 236.928 94.7888C236.911 94.5103 236.719 94.301 236.499 94.323C234.223 94.5491 233.069 95.1195 233.069 96.0174C233.069 97.5163 236.394 97.751 237.728 97.7848V102.009C237.728 102.29 237.906 102.516 238.127 102.516C238.348 102.516 238.526 102.29 238.526 102.009V97.7848C239.86 97.751 243.185 97.5163 243.185 96.0174C243.185 95.1195 242.031 94.5491 239.755 94.323C239.534 94.2993 239.342 94.5103 239.326 94.7888C239.309 95.0673 239.474 95.3118 239.694 95.3321C241.219 95.484 242.028 95.8115 242.307 96.0191C241.927 96.306 240.639 96.7248 238.526 96.772V92.3885H241.455C241.676 92.3885 241.854 92.1623 241.854 91.8821C241.854 91.6019 241.676 91.3758 241.455 91.3758H234.799Z" fill="#B18F62"/>
<path d="M21.6762 48C20.9867 48 20.3638 48.5182 20.0896 49.32L18.1422 54.9961C17.856 55.8299 18.0105 56.8159 18.527 57.4488L24.9239 65.2906C25.2607 65.7041 25.6931 65.91 26.127 65.91C26.5596 65.91 26.9921 65.7024 27.3302 65.2906L33.7271 57.4488C34.2436 56.8159 34.398 55.8299 34.1119 54.9961L32.1658 49.32C31.8903 48.5182 31.2674 48 30.5779 48H21.6762ZM21.6762 49.0127H30.5792C30.9506 49.0127 31.286 49.2914 31.4337 49.7235L33.3798 55.3996C33.5329 55.8486 33.4503 56.3787 33.1721 56.7196L26.7751 64.5613C26.4118 65.0069 25.8436 65.0069 25.4802 64.5613L19.082 56.7196C18.8038 56.3787 18.7212 55.8486 18.8756 55.3996L20.8217 49.7235C20.9694 49.2914 21.3048 49.0127 21.6762 49.0127ZM22.7995 51.3758C22.5785 51.3758 22.4002 51.6019 22.4002 51.8821C22.4002 52.1623 22.5785 52.3885 22.7995 52.3885H25.7277V56.772C23.6167 56.7248 22.3269 56.306 21.9476 56.0191C22.2258 55.8132 23.0351 55.484 24.5605 55.3321C24.7801 55.3101 24.9451 55.0673 24.9278 54.7888C24.9105 54.5103 24.7188 54.301 24.4991 54.323C22.2231 54.5491 21.0692 55.1195 21.0692 56.0174C21.0692 57.5163 24.394 57.751 25.7277 57.7848V62.0094C25.7277 62.2896 25.9061 62.5158 26.127 62.5158C26.348 62.5158 26.5263 62.2896 26.5263 62.0094V57.7848C27.86 57.751 31.1849 57.5163 31.1849 56.0174C31.1849 55.1195 30.031 54.5491 27.7549 54.323C27.534 54.2993 27.3422 54.5103 27.3263 54.7888C27.309 55.0673 27.474 55.3118 27.6936 55.3321C29.2189 55.484 30.0283 55.8115 30.3065 56.0191C29.9272 56.306 28.6387 56.7248 26.5263 56.772V52.3885H29.4546C29.6755 52.3885 29.8539 52.1623 29.8539 51.8821C29.8539 51.6019 29.6755 51.3758 29.4546 51.3758H22.7995Z" fill="#B18F62"/>
<path d="M166.991 36.1331C167.065 35.5858 166.681 35.0824 166.133 35.0089L157.213 33.8107C156.666 33.7372 156.163 34.1213 156.089 34.6687C156.015 35.216 156.4 35.7194 156.947 35.7929L164.876 36.858L163.811 44.7868C163.737 45.3341 164.121 45.8375 164.669 45.911C165.216 45.9845 165.719 45.6004 165.793 45.053L166.991 36.1331ZM90.6067 94.795L166.607 36.795L165.393 35.2051L89.3933 93.205L90.6067 94.795Z" fill="#B18F62"/>
<path d="M275.991 56.1331C276.065 55.5858 275.681 55.0824 275.133 55.0089L266.213 53.8107C265.666 53.7372 265.163 54.1213 265.089 54.6687C265.015 55.216 265.4 55.7194 265.947 55.7929L273.876 56.858L272.811 64.7868C272.737 65.3341 273.121 65.8375 273.669 65.911C274.216 65.9845 274.719 65.6004 274.793 65.053L275.991 56.1331ZM199.607 114.795L275.607 56.795L274.393 55.2051L198.393 113.205L199.607 114.795Z" fill="#B18F62"/>
<line x1="0.309681" y1="22.6074" x2="90.3097" y2="93.6074" stroke="#B18F62"/>
<line x1="109.31" y1="42.6074" x2="199.31" y2="113.607" stroke="#B18F62"/>
</svg>
