<svg width="288" height="113" viewBox="0 0 288 113" fill="none" xmlns="http://www.w3.org/2000/svg">
<rect x="0.5" y="0.5" width="287" height="112" rx="15.5" stroke="#B18F62"/>
<rect x="0.5" y="0.5" width="287" height="112" rx="15.5" stroke="#B18F62"/>
<path d="M177.06 46.27V38.27H169.06V41.27H160.53V47.47H157.09C155.993 45.8264 154.6 44.4019 152.98 43.27V29H160.39V32H168.39V24H160.39V27H150.98V42C148.726 40.8306 146.224 40.2202 143.685 40.2202C141.146 40.2202 138.644 40.8306 136.39 42V27H126.98V24H118.98V32H126.98V29H134.39V43.27C132.811 44.4176 131.455 45.8444 130.39 47.48H126.83V41.27H118.3V38.27H110.3V46.27H118.3V43.27H124.83V49.47H129.24C128.387 51.2929 127.889 53.2611 127.77 55.27H112V52.27H104V60.27H112V57.27H127.77C127.903 59.4553 128.485 61.5897 129.48 63.54H124.83V69.74H118.3V66.74H110.3V74.74H118.3V71.74H126.83V65.54H130.72C131.736 66.9717 132.975 68.2311 134.39 69.27V84.07H126.98V81.07H118.98V89.07H126.98V86.07H136.39V70.47C138.644 71.6394 141.146 72.2498 143.685 72.2498C146.224 72.2498 148.726 71.6394 150.98 70.47V86.04H160.39V89.04H168.39V81.04H160.39V84.04H152.98V69.27C154.423 68.2406 155.687 66.9804 156.72 65.54H160.51V71.74H169.04V74.74H177.04V66.74H169.04V69.74H162.53V63.54H157.96C158.972 61.5935 159.571 59.4589 159.72 57.27H175.42V60.27H183.42V52.27H175.42V55.27H159.72C159.596 53.2747 159.098 51.3205 158.25 49.51H162.58V43.27H169.11V46.27H177.06ZM162.39 26H166.39V30H162.39V26ZM124.98 30H120.98V26H124.98V30ZM116.3 44.27H112.3V40.27H116.3V44.27ZM110 58.27H106V54.27H110V58.27ZM116.3 72.74H112.3V68.74H116.3V72.74ZM124.98 87.04H120.98V83.04H124.98V87.04ZM162.39 83.04H166.39V87.04H162.39V83.04ZM171.06 68.74H175.06V72.74H171.06V68.74ZM177.37 54.27H181.37V58.27H177.37V54.27ZM150.99 44.33C152.903 45.4841 154.513 47.0794 155.684 48.9827C156.854 50.8859 157.553 53.0417 157.72 55.27H154.22C154.058 52.6812 153.268 50.1707 151.92 47.9548C150.571 45.7389 148.705 43.884 146.48 42.55C148.072 42.872 149.595 43.4711 150.98 44.32L150.99 44.33ZM142.72 57.27V68.67C140.601 67.5674 138.8 65.941 137.487 63.9456C136.174 61.9502 135.394 59.6522 135.22 57.27H142.72ZM135.22 55.27C135.394 52.8878 136.174 50.5898 137.487 48.5944C138.8 46.599 140.601 44.9726 142.72 43.87V55.27H135.22ZM144.72 57.27H152.22C152.046 59.6522 151.266 61.9502 149.953 63.9456C148.64 65.941 146.839 67.5674 144.72 68.67V57.27ZM144.72 55.27V43.87C146.839 44.9726 148.64 46.599 149.953 48.5944C151.266 50.5898 152.046 52.8878 152.22 55.27H144.72ZM140.96 42.55C138.735 43.884 136.869 45.7389 135.52 47.9548C134.172 50.1707 133.382 52.6812 133.22 55.27H129.77C129.989 52.2183 131.202 49.3224 133.223 47.0253C135.243 44.7282 137.961 43.1562 140.96 42.55ZM129.77 57.27H133.22C133.382 59.8588 134.172 62.3693 135.52 64.5852C136.869 66.8011 138.735 68.656 140.96 69.99C137.961 69.3838 135.243 67.8118 133.223 65.5147C131.202 63.2176 129.989 60.3217 129.77 57.27ZM146.48 69.99C148.705 68.656 150.571 66.8011 151.92 64.5852C153.268 62.3693 154.058 59.8588 154.22 57.27H157.72C157.498 60.3286 156.278 63.2298 154.248 65.5278C152.217 67.8258 149.488 69.3935 146.48 69.99ZM171.06 40.27H175.06V44.27H171.06V40.27Z" fill="#B18F62"/>
<line x1="183" y1="56.5" x2="257" y2="56.5" stroke="#B18F62"/>
<line x1="30" y1="56.5" x2="104" y2="56.5" stroke="#B18F62"/>
<circle cx="25.5" cy="56.5" r="4.5" fill="#B18F62"/>
<circle cx="260.5" cy="56.5" r="4.5" fill="#B18F62"/>
<line x1="27.2355" y1="59.5589" x2="116.675" y2="107.314" stroke="#B18F62"/>
<line x1="175.242" y1="6.5627" x2="261.381" y2="54.3129" stroke="#B18F62"/>
</svg>
